<svg width="22" height="20" viewBox="0 0 22 20" fill="none" xmlns="http://www.w3.org/2000/svg">
<path d="M13.001 1.5C16.7722 1.5 18.6578 1.5 19.8294 2.7448C21.001 3.98959 21.001 5.99306 21.001 10C21.001 14.0069 21.001 16.0104 19.8294 17.2552C18.6578 18.5 16.7722 18.5 13.001 18.5L9.00098 18.5C5.22974 18.5 3.34412 18.5 2.17255 17.2552C1.00098 16.0104 1.00098 14.0069 1.00098 10C1.00098 5.99306 1.00098 3.98959 2.17255 2.7448C3.34412 1.5 5.22974 1.5 9.00098 1.5L13.001 1.5Z" stroke="#D9E8E3" stroke-width="1.5" stroke-linejoin="round"/>
<path d="M4.00098 13.4999C5.60963 11.3625 9.35488 11.2458 11.001 13.4999M9.25 8.25C9.25 9.2165 8.4665 10 7.5 10C6.5335 10 5.75 9.2165 5.75 8.25C5.75 7.2835 6.5335 6.5 7.5 6.5C8.4665 6.5 9.25 7.2835 9.25 8.25Z" stroke="#D9E8E3" stroke-width="1.5" stroke-linecap="round"/>
<path d="M14.001 7.5L18.001 7.5" stroke="#D9E8E3" stroke-width="1.5" stroke-linecap="round"/>
<path d="M14.001 11.5H16.001" stroke="#D9E8E3" stroke-width="1.5" stroke-linecap="round"/>
</svg>
