<svg width="22" height="22" viewBox="0 0 22 22" fill="none" xmlns="http://www.w3.org/2000/svg">
<path d="M10.8841 9.44264L11.3554 8.85918L10.8841 9.44264ZM10.579 9.14899L11.1444 8.65616V8.65616L10.579 9.14899ZM20.421 9.14899L19.8556 8.65616V8.65616L20.421 9.14899ZM20.1159 9.44264L19.6446 8.85918L20.1159 9.44264ZM20.1159 1.55736L19.6446 2.14082L20.1159 1.55736ZM20.421 1.85101L19.8556 2.34384V2.34384L20.421 1.85101ZM10.8841 1.55736L11.3554 2.14082L10.8841 1.55736ZM10.579 1.85101L11.1444 2.34384V2.34384L10.579 1.85101ZM10 3.75C9.58579 3.75 9.25 4.08579 9.25 4.5C9.25 4.91421 9.58579 5.25 10 5.25L10 3.75ZM21 5.25C21.4142 5.25 21.75 4.91421 21.75 4.5C21.75 4.08579 21.4142 3.75 21 3.75V5.25ZM14.675 1.75H16.325V0.25H14.675V1.75ZM16.325 9.25H14.675V10.75H16.325V9.25ZM14.675 9.25C13.6234 9.25 12.8992 9.24883 12.3492 9.18528C11.8141 9.12347 11.544 9.01153 11.3554 8.85918L10.4128 10.0261C10.9143 10.4311 11.506 10.5978 12.177 10.6754C12.8332 10.7512 13.6594 10.75 14.675 10.75V9.25ZM9.25 5.5C9.25 6.47553 9.24864 7.27674 9.32814 7.91439C9.41006 8.57138 9.58742 9.15283 10.0137 9.64183L11.1444 8.65616C10.9916 8.48092 10.8795 8.23279 10.8166 7.7288C10.7514 7.20547 10.75 6.51431 10.75 5.5H9.25ZM11.3554 8.85918C11.2787 8.79726 11.2081 8.7293 11.1444 8.65616L10.0137 9.64183C10.1352 9.78117 10.2688 9.90971 10.4128 10.0261L11.3554 8.85918ZM20.25 5.5C20.25 6.51431 20.2486 7.20547 20.1834 7.7288C20.1205 8.23279 20.0084 8.48092 19.8556 8.65616L20.9863 9.64183C21.4126 9.15283 21.5899 8.57138 21.6719 7.91439C21.7514 7.27674 21.75 6.47553 21.75 5.5H20.25ZM16.325 10.75C17.3406 10.75 18.1668 10.7512 18.823 10.6754C19.494 10.5978 20.0857 10.4311 20.5872 10.0261L19.6446 8.85918C19.456 9.01153 19.1859 9.12347 18.6508 9.18528C18.1008 9.24883 17.3766 9.25 16.325 9.25V10.75ZM19.8556 8.65616C19.7919 8.7293 19.7213 8.79726 19.6446 8.85918L20.5872 10.0261C20.7312 9.90972 20.8648 9.78117 20.9863 9.64183L19.8556 8.65616ZM16.325 1.75C17.3766 1.75 18.1008 1.75117 18.6508 1.81472C19.1859 1.87653 19.456 1.98847 19.6446 2.14082L20.5872 0.973908C20.0857 0.568899 19.494 0.402154 18.823 0.324626C18.1668 0.248826 17.3406 0.25 16.325 0.25V1.75ZM21.75 5.5C21.75 4.52447 21.7514 3.72326 21.6719 3.08561C21.5899 2.42862 21.4126 1.84717 20.9863 1.35818L19.8556 2.34384C20.0084 2.51908 20.1205 2.76721 20.1834 3.2712C20.2486 3.79453 20.25 4.48569 20.25 5.5H21.75ZM19.6446 2.14082C19.7213 2.20274 19.7919 2.2707 19.8556 2.34384L20.9863 1.35818C20.8648 1.21883 20.7312 1.09029 20.5872 0.973908L19.6446 2.14082ZM14.675 0.25C13.6594 0.25 12.8332 0.248826 12.177 0.324626C11.506 0.402153 10.9143 0.568899 10.4128 0.973908L11.3554 2.14082C11.544 1.98847 11.8141 1.87653 12.3492 1.81472C12.8992 1.75117 13.6234 1.75 14.675 1.75V0.25ZM10.75 5.5C10.75 4.48569 10.7514 3.79453 10.8166 3.2712C10.8795 2.76721 10.9916 2.51908 11.1444 2.34384L10.0137 1.35818C9.58742 1.84717 9.41006 2.42862 9.32814 3.08561C9.24864 3.72326 9.25 4.52447 9.25 5.5H10.75ZM10.4128 0.973908C10.2688 1.09029 10.1352 1.21883 10.0137 1.35818L11.1444 2.34384C11.2081 2.2707 11.2787 2.20274 11.3554 2.14082L10.4128 0.973908ZM10 5.25L21 5.25V3.75L10 3.75L10 5.25Z" fill="#D9E8E3"/>
<path d="M1 14.75C0.585786 14.75 0.25 15.0858 0.25 15.5C0.25 15.9142 0.585786 16.25 1 16.25L1 14.75ZM12 16.25C12.4142 16.25 12.75 15.9142 12.75 15.5C12.75 15.0858 12.4142 14.75 12 14.75V16.25ZM1.8841 20.4426L2.35535 19.8592L1.8841 20.4426ZM1.57904 20.149L2.14439 19.6562L2.14439 19.6562L1.57904 20.149ZM11.421 20.149L10.8556 19.6562V19.6562L11.421 20.149ZM11.1159 20.4426L10.6446 19.8592L11.1159 20.4426ZM11.1159 12.5574L10.6446 13.1408L11.1159 12.5574ZM11.421 12.851L10.8556 13.3438V13.3438L11.421 12.851ZM1.8841 12.5574L2.35535 13.1408L1.8841 12.5574ZM1.57904 12.851L2.14439 13.3438L2.14439 13.3438L1.57904 12.851ZM1 16.25L12 16.25V14.75L1 14.75L1 16.25ZM5.675 12.75H7.325V11.25H5.675V12.75ZM7.325 20.25H5.675V21.75H7.325V20.25ZM5.675 20.25C4.62339 20.25 3.8992 20.2488 3.34919 20.1853C2.81414 20.1235 2.54398 20.0115 2.35535 19.8592L1.41285 21.0261C1.91429 21.4311 2.50598 21.5978 3.17705 21.6754C3.83317 21.7512 4.65939 21.75 5.675 21.75V20.25ZM0.25 16.5C0.25 17.4755 0.248635 18.2767 0.328143 18.9144C0.410061 19.5714 0.587418 20.1528 1.01369 20.6418L2.14439 19.6562C1.99162 19.4809 1.87946 19.2328 1.81662 18.7288C1.75136 18.2055 1.75 17.5143 1.75 16.5H0.25ZM2.35535 19.8592C2.27869 19.7973 2.20814 19.7293 2.14439 19.6562L1.01369 20.6418C1.13517 20.7812 1.26876 20.9097 1.41285 21.0261L2.35535 19.8592ZM11.25 16.5C11.25 17.5143 11.2486 18.2055 11.1834 18.7288C11.1205 19.2328 11.0084 19.4809 10.8556 19.6562L11.9863 20.6418C12.4126 20.1528 12.5899 19.5714 12.6719 18.9144C12.7514 18.2767 12.75 17.4755 12.75 16.5H11.25ZM7.325 21.75C8.34061 21.75 9.16683 21.7512 9.82295 21.6754C10.494 21.5978 11.0857 21.4311 11.5872 21.0261L10.6446 19.8592C10.456 20.0115 10.1859 20.1235 9.65081 20.1853C9.1008 20.2488 8.37661 20.25 7.325 20.25V21.75ZM10.8556 19.6562C10.7919 19.7293 10.7213 19.7973 10.6446 19.8592L11.5872 21.0261C11.7312 20.9097 11.8648 20.7812 11.9863 20.6418L10.8556 19.6562ZM7.325 12.75C8.37661 12.75 9.1008 12.7512 9.65081 12.8147C10.1859 12.8765 10.456 12.9885 10.6446 13.1408L11.5872 11.9739C11.0857 11.5689 10.494 11.4022 9.82295 11.3246C9.16683 11.2488 8.34061 11.25 7.325 11.25V12.75ZM12.75 16.5C12.75 15.5245 12.7514 14.7233 12.6719 14.0856C12.5899 13.4286 12.4126 12.8472 11.9863 12.3582L10.8556 13.3438C11.0084 13.5191 11.1205 13.7672 11.1834 14.2712C11.2486 14.7945 11.25 15.4857 11.25 16.5H12.75ZM10.6446 13.1408C10.7213 13.2027 10.7919 13.2707 10.8556 13.3438L11.9863 12.3582C11.8648 12.2188 11.7312 12.0903 11.5872 11.9739L10.6446 13.1408ZM5.675 11.25C4.65939 11.25 3.83317 11.2488 3.17705 11.3246C2.50598 11.4022 1.91429 11.5689 1.41285 11.9739L2.35535 13.1408C2.54398 12.9885 2.81414 12.8765 3.34919 12.8147C3.8992 12.7512 4.62339 12.75 5.675 12.75V11.25ZM1.75 16.5C1.75 15.4857 1.75136 14.7945 1.81662 14.2712C1.87946 13.7672 1.99162 13.5191 2.14439 13.3438L1.01369 12.3582C0.587418 12.8472 0.410061 13.4286 0.328143 14.0856C0.248635 14.7233 0.25 15.5245 0.25 16.5H1.75ZM1.41285 11.9739C1.26876 12.0903 1.13517 12.2188 1.01369 12.3582L2.14439 13.3438C2.20814 13.2707 2.27869 13.2027 2.35535 13.1408L1.41285 11.9739Z" fill="#D9E8E3"/>
<path d="M1 9C1 5.68286 3.68286 3 7 3L6.14286 4.71429" stroke="#D9E8E3" stroke-width="1.5" stroke-linecap="round" stroke-linejoin="round"/>
<path d="M21 13C21 16.3171 18.3171 19 15 19L15.8571 17.2857" stroke="#D9E8E3" stroke-width="1.5" stroke-linecap="round" stroke-linejoin="round"/>
</svg>
