<svg width="22" height="18" viewBox="0 0 22 18" fill="none" xmlns="http://www.w3.org/2000/svg">
<path d="M13 13C13 11.1144 13 10.1716 13.5858 9.58579C14.1716 9 15.1144 9 17 9C18.8856 9 19.8284 9 20.4142 9.58579C21 10.1716 21 11.1144 21 13C21 14.8856 21 15.8284 20.4142 16.4142C19.8284 17 18.8856 17 17 17C15.1144 17 14.1716 17 13.5858 16.4142C13 15.8284 13 14.8856 13 13Z" stroke="#D9E8E3" stroke-width="1.5"/>
<path d="M13 13V8.86265C13 5.19569 15.5157 2.08584 19 1" stroke="#D9E8E3" stroke-width="1.5" stroke-linecap="round"/>
<path d="M1 13C1 11.1144 1 10.1716 1.58579 9.58579C2.17157 9 3.11438 9 5 9C6.88562 9 7.82843 9 8.41421 9.58579C9 10.1716 9 11.1144 9 13C9 14.8856 9 15.8284 8.41421 16.4142C7.82843 17 6.88562 17 5 17C3.11438 17 2.17157 17 1.58579 16.4142C1 15.8284 1 14.8856 1 13Z" stroke="#D9E8E3" stroke-width="1.5"/>
<path d="M1 13V8.86265C1 5.19569 3.51571 2.08584 7 1" stroke="#D9E8E3" stroke-width="1.5" stroke-linecap="round"/>
</svg>
