<svg width="21" height="23" viewBox="0 0 21 23" fill="none" xmlns="http://www.w3.org/2000/svg">
<path d="M5.0825 6.73786C8.08958 7.268 9.8818 8.37693 10.5 9.01357C11.1182 8.37693 12.9104 7.268 15.9175 6.73786C17.4409 6.46929 18.2026 6.33501 18.8513 6.8497C19.5 7.3644 19.5 8.20019 19.5 9.87176V15.8791C19.5 17.4076 19.5 18.1718 19.0837 18.6489C18.6673 19.126 17.7507 19.2876 15.9175 19.6108C14.2833 19.8989 13.0079 20.3579 12.0847 20.8192C11.1765 21.2731 10.7223 21.5 10.5 21.5C10.2777 21.5 9.82354 21.2731 8.91526 20.8192C7.9921 20.3579 6.7167 19.8989 5.0825 19.6108C3.24929 19.2876 2.33268 19.126 1.91634 18.6489C1.5 18.1718 1.5 17.4076 1.5 15.8791V9.87176C1.5 8.20019 1.5 7.3644 2.1487 6.8497C2.79741 6.33501 3.55911 6.46929 5.0825 6.73786Z" stroke="white" stroke-width="1.5" stroke-linecap="round" stroke-linejoin="round"/>
<path d="M10.5 8.5L10.5 21.5" stroke="white" stroke-width="1.5" stroke-linejoin="round"/>
<path d="M7 2.55857C8.01136 1.88797 9.20893 1.5 10.4926 1.5C11.7825 1.5 12.9855 1.89177 14 2.56841M12.1222 5C11.6421 4.71025 11.0857 4.54459 10.4926 4.54459C9.9058 4.54459 9.35498 4.70674 8.8784 4.99078" stroke="white" stroke-width="1.5" stroke-linecap="round"/>
</svg>
